solid 
facet normal 0 0 1
 outer loop
  vertex 1 1 4.096719
  vertex -1 1 4.096719
  vertex -1 -1 4.096719
 endloop
endfacet
facet normal 0 -0 1
 outer loop
  vertex 1 1 4.096719
  vertex -1 -1 4.096719
  vertex 1 -1 4.096719
 endloop
endfacet
facet normal 0 -1 0
 outer loop
  vertex 1 -1 2.0967188
  vertex 1 -1 4.096719
  vertex -1 -1 4.096719
 endloop
endfacet
facet normal 0 -1 0
 outer loop
  vertex 1 -1 2.0967188
  vertex -1 -1 4.096719
  vertex -1 -1 2.0967188
 endloop
endfacet
facet normal -1 -0 -0
 outer loop
  vertex -1 -1 2.0967188
  vertex -1 -1 4.096719
  vertex -1 1 4.096719
 endloop
endfacet
facet normal -1 -0 0
 outer loop
  vertex -1 -1 2.0967188
  vertex -1 1 4.096719
  vertex -1 1 2.0967188
 endloop
endfacet
facet normal 0 0 -1
 outer loop
  vertex -1 1 2.0967188
  vertex 1 1 2.0967188
  vertex 1 -1 2.0967188
 endloop
endfacet
facet normal 0 0 -1
 outer loop
  vertex -1 1 2.0967188
  vertex 1 -1 2.0967188
  vertex -1 -1 2.0967188
 endloop
endfacet
facet normal 1 -0 0
 outer loop
  vertex 1 1 2.0967188
  vertex 1 1 4.096719
  vertex 1 -1 4.096719
 endloop
endfacet
facet normal 1 -0 0
 outer loop
  vertex 1 1 2.0967188
  vertex 1 -1 4.096719
  vertex 1 -1 2.0967188
 endloop
endfacet
facet normal 0 1 0
 outer loop
  vertex -1 1 2.0967188
  vertex -1 1 4.096719
  vertex 1 1 4.096719
 endloop
endfacet
facet normal 0 1 -0
 outer loop
  vertex -1 1 2.0967188
  vertex 1 1 4.096719
  vertex 1 1 2.0967188
 endloop
endfacet
endsolid 
